<?xml version="1.0" encoding="UTF-8" standalone="no"?>
<svg width="30px" height="30px" viewBox="0 0 30 30" version="1.1" xmlns="http://www.w3.org/2000/svg" xmlns:xlink="http://www.w3.org/1999/xlink" xmlns:sketch="http://www.bohemiancoding.com/sketch/ns">
    <!-- Generator: Sketch 3.2.1 (9971) - http://www.bohemiancoding.com/sketch -->
    <title>Shape</title>
    <desc>Created with Sketch.</desc>
    <defs></defs>
    <g id="Page-1" stroke="none" stroke-width="1" fill="none" fill-rule="evenodd" sketch:type="MSPage">
        <g id="Desktop-HD-3" sketch:type="MSArtboardGroup" transform="translate(-1363.000000, -591.000000)" fill="#FFFFFF">
            <path d="M1389.85483,599.565431 L1384.45053,599.565431 L1384.45053,594.427201 C1384.45053,592.534529 1383.04285,591 1381.30575,591 L1378.49511,591 C1377.34254,591 1376.28236,591.687154 1375.73203,592.790712 L1372.22914,599.815617 C1371.86749,599.657537 1371.47321,599.568001 1371.05928,599.568001 L1366.14478,599.568001 C1364.40807,599.568001 1363,601.10253 1363,602.995202 L1363,617.572799 C1363,619.465471 1364.40807,621 1366.14478,621 L1371.05928,621 C1372.45556,621 1373.6376,620.007825 1374.04839,618.635232 L1378.96918,620.758811 C1379.33791,620.918176 1379.73061,620.999572 1380.12685,620.999572 L1389.85522,620.999572 C1391.59193,620.999572 1393,619.465043 1393,617.572371 L1393,602.992632 C1392.99961,601.09996 1391.59153,599.565431 1389.85483,599.565431 L1389.85483,599.565431 Z M1366.14478,617.572799 L1366.14478,602.995202 L1371.03255,602.995202 C1371.03176,603.030331 1371.02665,603.064603 1371.02665,603.099303 L1371.02665,615.002399 C1371.02665,615.161764 1371.04002,615.318558 1371.05928,615.473639 L1371.05928,617.572799 L1366.14478,617.572799 L1366.14478,617.572799 Z M1389.85483,617.572799 L1380.12646,617.572799 L1374.20406,615.016536 L1374.20406,603.03333 L1378.49511,594.427201 L1381.30575,594.427201 L1381.30575,602.992632 L1389.85483,602.992632 L1389.85483,617.572799 L1389.85483,617.572799 Z" id="Shape" sketch:type="MSShapeGroup"></path>
        </g>
    </g>
</svg>