<?xml version="1.0" encoding="UTF-8" standalone="no"?>
<svg width="51px" height="51px" viewBox="0 0 51 51" version="1.1" xmlns="http://www.w3.org/2000/svg" xmlns:xlink="http://www.w3.org/1999/xlink" xmlns:sketch="http://www.bohemiancoding.com/sketch/ns">
    <!-- Generator: Sketch 3.2.1 (9971) - http://www.bohemiancoding.com/sketch -->
    <title>Rectangle 80</title>
    <desc>Created with Sketch.</desc>
    <defs></defs>
    <g id="Page-1" stroke="none" stroke-width="1" fill="none" fill-rule="evenodd" sketch:type="MSPage">
        <g id="Artboard-8" sketch:type="MSArtboardGroup" transform="translate(-120.000000, -124.000000)" fill="#494947">
            <path d="M143.447761,153.985075 L138.5,147 L130,159 L143.5,159 L162,159 L151,143 L143.447761,153.985075 L143.447761,153.985075 Z M120,128.001884 C120,125.791705 121.785213,124 124.001884,124 L166.998116,124 C169.208295,124 171,125.785213 171,128.001884 L171,170.998116 C171,173.208295 169.214787,175 166.998116,175 L124.001884,175 C121.791705,175 120,173.214787 120,170.998116 L120,128.001884 Z M144,144 C145.104569,144 146,143.104569 146,142 C146,140.895431 145.104569,140 144,140 C142.895431,140 142,140.895431 142,142 C142,143.104569 142.895431,144 144,144 Z" id="Rectangle-80" sketch:type="MSShapeGroup"></path>
        </g>
    </g>
</svg>