<?xml version="1.0" encoding="UTF-8" standalone="no"?>
<svg width="51px" height="51px" viewBox="0 0 51 51" version="1.1" xmlns="http://www.w3.org/2000/svg" xmlns:xlink="http://www.w3.org/1999/xlink" xmlns:sketch="http://www.bohemiancoding.com/sketch/ns">
    <!-- Generator: Sketch 3.2.1 (9971) - http://www.bohemiancoding.com/sketch -->
    <title>Rectangle 81</title>
    <desc>Created with Sketch.</desc>
    <defs></defs>
    <g id="Page-1" stroke="none" stroke-width="1" fill="none" fill-rule="evenodd" sketch:type="MSPage">
        <g id="Artboard-8" sketch:type="MSArtboardGroup" transform="translate(-190.000000, -124.000000)" fill="#494947">
            <path d="M190,128.001884 C190,125.791705 191.785213,124 194.001884,124 L236.998116,124 C239.208295,124 241,125.785213 241,128.001884 L241,170.998116 C241,173.208295 239.214787,175 236.998116,175 L194.001884,175 C191.791705,175 190,173.214787 190,170.998116 L190,128.001884 Z M205,140.994561 C205,139.892996 205.902344,139 206.994561,139 L224.005439,139 C225.107004,139 226,139.902344 226,140.994561 L226,158.005439 C226,159.107004 225.097656,160 224.005439,160 L206.994561,160 C205.892996,160 205,159.097656 205,158.005439 L205,140.994561 Z M212.818187,154 L212.818187,145 L218.818187,149.5 L212.818187,154 Z" id="Rectangle-81" sketch:type="MSShapeGroup"></path>
        </g>
    </g>
</svg>